<?xml version="1.0" standalone="no"?>
<!DOCTYPE svg PUBLIC "-//W3C//DTD SVG 20010904//EN"
 "http://www.w3.org/TR/2001/REC-SVG-20010904/DTD/svg10.dtd">
<svg version="1.0" xmlns="http://www.w3.org/2000/svg"
 width="700.000000pt" height="700.000000pt" viewBox="0 0 700.000000 700.000000"
 preserveAspectRatio="xMidYMid meet">
<metadata>
Created by potrace 1.14, written by Peter Selinger 2001-2017
</metadata>
<g transform="translate(0.000000,700.000000) scale(0.100000,-0.100000)"
fill="#000000" stroke="none">
<path d="M1560 6933 c-192 -20 -404 -122 -558 -268 -60 -56 -72 -63 -107 -63
-264 2 -498 -204 -542 -477 -7 -44 -13 -53 -52 -79 -138 -92 -246 -253 -284
-419 -19 -84 -16 -249 6 -328 68 -244 258 -429 508 -494 52 -14 113 -17 337
-17 l273 0 -44 -61 c-275 -385 -468 -877 -522 -1331 -3 -24 -8 -63 -12 -87 -9
-69 -12 -510 -3 -560 4 -24 11 -78 15 -118 3 -41 8 -78 10 -82 3 -3 7 -29 11
-57 3 -28 21 -111 40 -184 19 -73 38 -149 43 -168 9 -39 64 -188 86 -237 8
-17 15 -34 15 -38 0 -4 29 -66 64 -138 276 -565 706 -1013 1267 -1320 288
-157 709 -290 1024 -322 33 -4 74 -9 90 -12 52 -9 417 -10 510 -2 79 7 111 11
210 24 141 19 479 106 580 149 17 8 62 26 100 41 39 16 119 53 178 82 94 47
112 53 140 45 52 -15 146 -3 200 24 27 13 54 21 60 17 12 -7 168 -144 197
-173 61 -61 201 -180 227 -194 62 -32 126 -26 185 18 42 30 126 161 144 224
21 70 15 170 -14 234 -11 26 -56 99 -99 163 -43 64 -100 149 -126 190 l-48 74
113 131 113 130 29 -32 c16 -18 45 -51 65 -73 20 -22 65 -74 101 -115 36 -41
72 -81 80 -90 8 -9 42 -47 75 -85 33 -37 69 -78 80 -89 11 -12 37 -42 59 -66
83 -97 159 -169 194 -186 89 -43 192 -13 254 72 149 206 176 271 164 402 -9
103 -29 156 -112 292 -42 69 -84 139 -94 155 -10 17 -76 126 -148 242 -72 117
-136 222 -142 233 -9 18 0 34 72 124 129 160 191 282 223 431 13 61 13 273 0
350 -18 103 -73 218 -130 268 -31 28 -115 65 -165 72 -25 4 -48 12 -52 18 -4
7 -8 36 -9 65 -1 28 -2 55 -3 60 -1 4 -6 41 -10 82 -8 78 -10 91 -21 150 -4
19 -9 46 -12 60 -40 222 -133 493 -253 735 -128 259 -150 284 -232 271 -32 -5
-39 -3 -49 16 -7 13 -15 25 -18 28 -4 3 -27 34 -53 71 -25 36 -53 71 -62 78
-13 11 -13 16 -1 34 19 30 26 74 15 102 -16 43 -195 221 -390 389 -38 32 -180
136 -186 136 -4 0 -17 8 -28 18 -35 31 -234 146 -346 200 -236 113 -535 213
-740 247 -19 3 -46 7 -60 10 -14 3 -43 7 -65 10 -22 2 -49 7 -61 9 -91 19
-413 26 -594 13 l-105 -8 -37 33 c-68 61 -93 78 -164 113 -80 40 -214 72 -290
71 l-51 -1 -17 65 c-91 342 -390 619 -746 691 -56 11 -238 18 -300 12z"/>
</g>
</svg>
